<svg version="1.1" viewBox="0.0 0.0 377 377" fill="none" stroke="none" stroke-linecap="square" stroke-miterlimit="10" xmlns:xlink="http://www.w3.org/1999/xlink" xmlns="http://www.w3.org/2000/svg">
  <clipPath id="g7d03849c6f_0_81">
    <path d="m0 0l377 0l0 377-377 0l0 -377" clip-rule="nonzero"/>
  </clipPath>
  <g clip-path="url(#g7d03849c6f_0_81)">
    <path fill="#000000" fill-opacity="0" d="m0 0l377 0l0 377-377 0z" fill-rule="evenodd"/>
    <path fill="#b7b7b7" d="m90 130 l0 0c0 -15 10 -25 25 -25 l120 0c5 0 13 2 18 7 c4 4 7 11 7 20 l0 102 l-180 0"/>
    <path fill="#666666" d="m100 130 c0 -5 5 -10 10 -10 l50 0 c5 0 10 5 10 10 l0 50 c0 5 -5 10 -10 10 l-50 0c-5 0 -10 -5 -10 -10z"/>
    <path fill="#b7b7b7" d="m58.879265 243.8614l0 0c0 -14.13356 11.457512 -25.591064 25.591064 -25.591064l162.77063 0c6.7871857 0 13.296371 2.6961975 18.095627 7.495453c4.7992554 4.7992554 7.495453 11.308441 7.495453 18.095612l0 102.36119c0 14.133545 -11.457052 25.591064 -25.59108 25.591064l-162.77063 0c-14.133553 0 -25.591064 -11.45752 -25.591064 -25.591064z"/>
	<path fill="#666666" d="m124.48307 21.333649l0 0c1.7105179 -7.363945 9.067009 -11.947728 16.431175 -10.238167l158.11938 36.706768c3.5364075 0.820961 6.601654 3.0130844 8.521423 6.094124c1.9197998 3.0810432 2.5368347 6.798622 1.7154236 10.334911l-12.388336 53.3328c-1.7105103 7.363945 -9.067017 11.947723 -16.431183 10.238167l-158.11938 -36.70677c-7.3641663 -1.7095642 -11.94735 -9.065086 -10.236824 -16.429031z"/>
	<path fill="#666666" d="m193.1076 125.76125l0 0c0 -2.7803192 2.2539062 -5.034218 5.0342255 -5.034218l20.136292 0l0 0c1.335144 0 2.615631 0.5303879 3.559723 1.4744873c0.94410706 0.9440994 1.4744873 2.2245712 1.4744873 3.5597305l0 109.74258c0 2.7803345 -2.253891 5.0342255 -5.03421 5.0342255l-20.136292 0c-2.7803192 0 -5.0342255 -2.253891 -5.0342255 -5.0342255z"/>
	<path fill="#cccccc" d="m142.24307 33.18756l0 0c0.73928833 -3.1833115 3.9192657 -5.164892 7.102661 -4.4259834l138.14117 32.064335c1.528717 0.3548355 2.8538208 1.3024025 3.6837463 2.6342506c0.82992554 1.3318443 1.0967407 2.938877 0.7416992 4.467556l-5.3542786 23.054886c-0.73928833 3.1833115 -3.9192505 5.164894 -7.102661 4.4259872l-138.14117 -32.06434l0 0c-3.1833954 -0.73890686 -5.164734 -3.9184952 -4.4254456 -7.1018066z"/>
	<path fill="#f3f3f3" d="m222.27328 78.7692l0 0c0.7305908 -3.139824 3.868576 -5.094574 7.0088806 -4.3660583l62.076782 14.401176c1.5080261 0.3498459 2.814911 1.2843323 3.6331482 2.5978851c0.8182678 1.3135529 1.0808411 2.8985672 0.730011 4.4063644l-5.2912903 22.73993c-0.7305908 3.139824 -3.8685913 5.094574 -7.0088806 4.3660507l-62.076782 -14.401169c-3.1403046 -0.7285156 -5.09375 -3.8644257 -4.363159 -7.0042496z"/>
	<path fill="#666666" d="m69.39895 305.16028l0 0c0 -4.5053406 3.6523056 -8.157654 8.157646 -8.157654l32.629593 0l0 0c2.1635437 0 4.238472 0.85946655 5.768326 2.3893127c1.5298538 1.5298462 2.3893204 3.6047974 2.3893204 5.768341l0 47.023285c0 4.5053406 -3.6523056 8.157654 -8.157646 8.157654l-32.629593 0c-4.5053406 0 -8.157646 -3.6523132 -8.157646 -8.157654z"/>
	<path fill="#434343" d="m99.603676 285.2126l0 0c0 -47.83568 38.77848 -86.61417 86.614174 -86.61417l0 0c22.971512 0 45.00215 9.125397 61.24547 25.368713c16.243317 16.243301 25.368713 38.273956 25.368713 61.245453l0 0c0 47.835693 -38.778503 86.6142 -86.61418 86.6142l0 0c-47.835693 0 -86.614174 -38.778503 -86.614174 -86.6142zm43.30709 0l0 0c0 23.917847 19.389236 43.3071 43.307083 43.3071c23.917847 0 43.307083 -19.389252 43.307083 -43.3071c0 -23.917816 -19.389236 -43.307068 -43.307083 -43.307068l0 0c-23.917847 0 -43.307083 19.389252 -43.307083 43.307068z"/>
	<path fill="#000000" fill-opacity="0.0" d="m239.0 269.6168l18.582672 -195.37007"/>
	<path stroke="#595959" stroke-width="12.0" stroke-linejoin="round" stroke-linecap="butt" d="m243.30641 224.34114l9.969849 -104.81877"/>
	<path fill="#595959" stroke="#595959" stroke-width="12.0" stroke-linecap="butt" d="m239.56813 263.64377c-10.853119 -1.0323181 -18.814468 -10.667343 -17.782166 -21.520462c1.0322876 -10.853119 10.667328 -18.814468 21.520447 -17.782166c10.853119 1.0323029 18.814468 10.667328 17.78215 21.520447c-1.0322876 10.853104 -10.667313 18.814468 -21.520432 17.78218z" fill-rule="nonzero"/>
	<path stroke="#595959" stroke-width="12.0" stroke-linecap="butt" d="m257.01456 80.219765c10.853119 1.0322952 18.814453 10.667328 17.782166 21.520447c-1.0322876 10.853111 -10.667328 18.81446 -21.520447 17.782166c-10.853119 -1.0322952 -18.814468 -10.667328 -17.782166 -21.520447c1.0322876 -10.853119 10.667328 -18.814468 21.520447 -17.782166z" fill-rule="nonzero"/>
	<path fill="#ffffff" d="m69.39895 254.14436l0 0c0 -13.515762 10.956688 -24.472443 24.472443 -24.472443l0 0c6.490494 0 12.715157 2.5783386 17.304626 7.167801c4.5894775 4.5894775 7.167816 10.814148 7.167816 17.304642l0 0c0 13.515762 -10.956688 24.472427 -24.472443 24.472427l0 0c-13.515755 0 -24.472443 -10.956665 -24.472443 -24.472427z"/>
	<path fill="#ffffff" d="m122.28346 141.76126l0 0c0 -2.7803345 2.2538986 -5.0342255 5.0342255 -5.0342255l20.136276 0l0 0c1.3351593 0 2.615631 0.5303955 3.5597382 1.4744873c0.9440918 0.94410706 1.4744873 2.2245789 1.4744873 3.5597382l0 26.12053c0 2.7803192 -2.253891 5.0342255 -5.0342255 5.0342255l-20.136276 0c-2.7803268 0 -5.0342255 -2.2539062 -5.0342255 -5.0342255z"/>
	<path fill="#d9d9d9" d="m110.96588 199.4672l0 0c0 -22.682816 18.388046 -41.07086 41.07086 -41.07086l0 0c10.89267 0 21.339203 4.3270874 29.041489 12.029373c7.702286 7.702286 12.029373 18.148819 12.029373 29.041489l0 0c0 22.682816 -18.388046 41.07086 -41.07086 41.07086l0 0c-22.682816 0 -41.07086 -18.388046 -41.07086 -41.07086zm20.53543 0l0 0c0 11.3414 9.194031 20.53543 20.53543 20.53543c11.341415 0 20.53543 -9.194031 20.53543 -20.53543c0 -11.341415 -9.1940155 -20.53543 -20.53543 -20.53543l0 0c-11.3414 0 -20.53543 9.1940155 -20.53543 20.53543z"/>
	<path fill="#000000" fill-opacity="0.0" d="m105.49869 314.1181l117.82677 -270.55118"/>
	<path stroke="#595959" stroke-width="12.0" stroke-linejoin="round" stroke-linecap="butt" d="m123.65813 272.4208l81.50789 -187.15659"/>
	<path fill="#595959" stroke="#595959" stroke-width="12.0" stroke-linecap="butt" d="m107.894394 308.61716c-9.995346 -4.353058 -14.569336 -15.984711 -10.216301 -25.980042c4.353035 -9.995361 15.984695 -14.569336 25.980034 -10.216309c9.995346 4.3530273 14.569336 15.984711 10.216309 25.980042c-4.3530426 9.995331 -15.984703 14.569336 -25.980042 10.216309z" fill-rule="nonzero"/>
	<path fill="#595959" stroke="#595959" stroke-width="12.0" stroke-linecap="butt" d="m220.92975 49.067894c9.995346 4.353035 14.569336 15.984695 10.216309 25.980034c-4.3530426 9.995346 -15.984695 14.569336 -25.980042 10.216301c-9.995346 -4.353035 -14.569336 -15.984695 -10.216293 -25.980038c4.3530273 -9.995342 15.984695 -14.569336 25.980026 -10.216297z" fill-rule="nonzero"/>
	<path fill="#000000" fill-opacity="0.0" d="m135.34511 203.71219l131.0551 -30.48819"/>
	<path stroke="#ffffff" stroke-width="8.0" stroke-linejoin="round" stroke-linecap="butt" d="m164.87651 196.8421l71.992294 -16.748016"/>
	<path stroke="#ffffff" stroke-width="8.0" stroke-linecap="butt" d="m139.24107 202.80585c-1.6468506 -7.0790405 2.7568207 -14.152756 9.835846 -15.799591c7.0790405 -1.6468506 14.152756 2.7568207 15.799591 9.835846c1.6468506 7.0790405 -2.7568207 14.152756 -9.835846 15.799591c-7.0790405 1.6468506 -14.152756 -2.7568207 -15.799591 -9.835846z" fill-rule="nonzero"/>
	<path stroke="#ffffff" stroke-width="8.0" stroke-linecap="butt" d="m262.50424 174.13034c1.6468506 7.0790405 -2.7568054 14.152756 -9.835846 15.799591c-7.0790253 1.6468506 -14.1527405 -2.7568207 -15.799591 -9.835846c-1.6468353 -7.0790405 2.7568207 -14.152756 9.835861 -15.799591c7.0790253 -1.6468506 14.152756 2.7568207 15.799576 9.835846z" fill-rule="nonzero"/>
	<path fill="#ffffff" d="m161.7454 285.2126l0 0c0 -13.515747 10.95668 -24.472443 24.472443 -24.472443l0 0c6.490494 0 12.715149 2.5783386 17.304626 7.167816c4.5894775 4.5894775 7.167816 10.814148 7.167816 17.304626l0 0c0 13.515778 -10.956696 24.472443 -24.472443 24.472443l0 0c-13.515762 0 -24.472443 -10.956665 -24.472443 -24.472443z"/>
	<path fill="#ffffff" d="m195.45117 67.21001l0 0c0 -9.993309 8.101166 -18.094486 18.094482 -18.094486l0 0c4.79895 0 9.401367 1.9063759 12.794739 5.2997513c3.3933716 3.3933754 5.2997437 7.995781 5.2997437 12.794735l0 0c0 9.993309 -8.101166 18.09449 -18.094482 18.09449l0 0c-9.993317 0 -18.094482 -8.101181 -18.094482 -18.09449z"/>
	<path fill="#ffffff" d="m97.89183 290.2787l0 0c0 -9.993317 8.101173 -18.094513 18.094482 -18.094513l0 0c4.798958 0 9.40136 1.9064026 12.794739 5.299774c3.3933716 3.3933716 5.299759 7.995758 5.299759 12.794739l0 0c0 9.993286 -8.101189 18.094482 -18.094498 18.094482l0 0c-9.993309 0 -18.094482 -8.101196 -18.094482 -18.094482z"/>
	<path fill="#ffffff" d="m223.31177 242.64613l0 0c0 -9.993317 8.101181 -18.094498 18.094498 -18.094498l0 0c4.79895 0 9.401352 1.9063873 12.794739 5.299759c3.3933563 3.3933716 5.299759 7.9957733 5.299759 12.794739l0 0c0 9.993301 -8.101196 18.094498 -18.094498 18.094498l0 0c-9.993317 0 -18.094498 -8.101196 -18.094498 -18.094498z"/>
	<path fill="#000000" fill-opacity="0.0" d="m135.34511 74.05602l54.015747 67.1811"/>
	<path stroke="#ffffff" stroke-width="4.0" stroke-linejoin="round" stroke-linecap="butt" d="m144.8445 85.87073l35.016968 43.551712"/>
	<path stroke="#ffffff" stroke-width="4.0" stroke-linecap="butt" d="m136.59833 75.61469c2.8321228 -2.2771149 6.973984 -1.8271942 9.251099 1.0049286c2.2771149 2.8321228 1.8271942 6.973984 -1.0049286 9.251106c-2.8321228 2.2771149 -6.973984 1.8271942 -9.251099 -1.0049286c-2.2771301 -2.8321304 -1.8272095 -6.9739914 1.0049286 -9.251106z" fill-rule="nonzero"/>
	<path fill="#ffffff" stroke="#ffffff" stroke-width="4.0" stroke-linecap="butt" d="m188.10764 139.67847c-2.8321228 2.2771149 -6.973984 1.8271942 -9.251099 -1.0049286c-2.2771301 -2.8321228 -1.8272095 -6.973984 1.0049133 -9.251099c2.832138 -2.2771225 6.973999 -1.8272018 9.251114 1.0049286c2.2771149 2.8321228 1.8271942 6.973984 -1.0049286 9.251099z" fill-rule="nonzero"/>
      </g>
    </svg>
    
